<svg id="svg" version="1.1" xmlns="http://www.w3.org/2000/svg" xmlns:xlink="http://www.w3.org/1999/xlink" width="400" height="224.39024390243904" viewBox="0, 0, 400,224.39024390243904"><g id="svgg"><path id="path0" d="M0.000 112.233 L 0.000 224.467 200.000 224.467 L 400.000 224.467 400.000 112.233 L 400.000 0.000 200.000 0.000 L 0.000 0.000 0.000 112.233 M160.606 75.962 C 163.383 77.781,161.440 82.448,158.208 81.722 C 155.403 81.092,154.610 77.330,156.969 75.847 C 157.845 75.298,159.681 75.355,160.606 75.962 M219.505 78.092 C 219.888 78.450,220.202 78.936,220.202 79.172 C 220.202 79.589,215.377 92.821,212.115 101.347 C 211.218 103.692,210.306 106.117,210.089 106.734 C 209.080 109.605,208.919 109.798,207.227 110.178 C 206.125 110.426,205.035 109.890,204.809 108.991 C 204.653 108.369,204.707 108.199,206.843 102.581 C 208.367 98.575,211.049 91.374,214.156 82.950 C 215.307 79.830,216.059 78.110,216.388 77.843 C 217.195 77.190,218.665 77.307,219.505 78.092 M202.250 85.019 C 202.700 85.590,202.870 87.390,202.522 87.892 C 202.318 88.188,198.376 90.543,194.164 92.887 C 190.842 94.736,190.831 94.511,194.332 96.402 C 202.703 100.925,202.694 100.918,202.694 102.514 C 202.694 105.836,201.357 105.490,190.965 99.477 C 190.502 99.209,189.745 98.776,189.282 98.515 C 187.068 97.265,186.532 96.457,186.532 94.369 C 186.532 92.915,187.626 91.553,189.575 90.579 C 190.062 90.336,191.167 89.717,192.031 89.203 C 192.896 88.688,194.007 88.042,194.501 87.766 C 194.994 87.490,196.510 86.635,197.868 85.866 C 201.212 83.973,201.399 83.937,202.250 85.019 M226.806 85.601 C 228.174 86.385,230.455 87.658,231.874 88.429 C 237.266 91.358,237.866 91.776,238.372 92.953 C 239.659 95.942,238.674 97.006,230.520 101.440 C 230.330 101.542,228.983 102.304,227.525 103.132 C 223.439 105.451,222.133 105.300,222.268 102.524 L 222.334 101.169 224.691 99.768 C 225.988 98.997,228.454 97.571,230.173 96.598 C 231.892 95.626,233.332 94.730,233.373 94.607 C 233.414 94.484,231.300 93.180,228.677 91.711 C 222.269 88.121,222.222 88.083,222.222 86.410 C 222.222 83.769,223.284 83.581,226.806 85.601 M125.973 84.792 C 126.403 85.288,127.001 87.240,128.531 93.154 C 129.390 96.475,130.226 99.309,130.403 99.502 C 130.541 99.653,131.114 97.760,133.359 89.731 C 134.990 83.895,134.607 84.400,137.405 84.400 L 139.626 84.400 139.960 85.129 C 140.239 85.737,141.216 89.086,143.790 98.260 C 144.220 99.795,144.448 99.747,144.850 98.036 C 145.721 94.332,147.951 85.892,148.244 85.190 L 148.574 84.400 150.683 84.400 C 153.438 84.400,153.780 84.675,153.254 86.473 C 153.065 87.123,152.339 89.624,151.641 92.031 C 150.540 95.832,149.805 98.298,148.495 102.581 C 148.325 103.137,148.066 104.045,147.919 104.600 C 147.368 106.686,147.112 106.846,144.330 106.846 C 141.195 106.846,141.590 107.409,139.358 99.776 C 137.475 93.338,137.320 93.005,136.925 94.550 C 136.790 95.078,136.587 95.763,136.475 96.072 C 136.362 96.380,136.123 97.189,135.942 97.868 C 135.762 98.547,135.413 99.759,135.168 100.561 C 134.922 101.364,134.453 102.929,134.124 104.039 C 133.286 106.876,133.327 106.846,130.296 106.846 C 127.041 106.846,127.659 107.945,123.979 95.623 C 123.665 94.574,123.275 93.311,123.111 92.817 C 122.947 92.323,122.544 91.010,122.216 89.899 C 121.887 88.788,121.477 87.432,121.303 86.885 C 120.898 85.608,120.906 85.311,121.359 84.810 C 121.894 84.219,125.464 84.206,125.973 84.792 M161.159 84.834 C 161.598 85.653,161.467 105.942,161.020 106.436 C 160.541 106.966,157.244 107.034,156.552 106.528 C 155.943 106.083,155.744 85.840,156.340 84.931 C 156.827 84.188,160.771 84.108,161.159 84.834 M169.737 85.017 C 170.052 85.356,170.992 86.594,171.825 87.767 C 172.659 88.939,173.697 90.337,174.132 90.873 L 174.923 91.848 175.386 91.098 C 175.640 90.685,176.793 89.010,177.947 87.374 L 180.046 84.400 182.132 84.400 C 186.148 84.400,186.077 84.642,179.384 93.709 L 177.961 95.638 181.573 100.435 C 183.560 103.074,185.185 105.411,185.185 105.629 C 185.185 106.574,184.557 106.846,182.381 106.846 L 180.319 106.846 178.863 104.994 C 178.063 103.976,176.833 102.360,176.132 101.403 C 174.563 99.262,174.876 99.179,172.675 102.322 C 171.659 103.773,170.464 105.385,170.020 105.904 L 169.213 106.846 166.994 106.846 C 165.029 106.846,164.748 106.796,164.542 106.412 C 164.154 105.686,164.264 105.381,165.491 103.783 C 167.619 101.010,171.493 95.670,171.493 95.509 C 171.493 95.422,170.192 93.667,168.602 91.610 C 163.253 84.687,163.189 84.400,167.006 84.400 C 169.072 84.400,169.189 84.426,169.737 85.017 M184.448 110.139 C 187.199 111.444,186.246 115.600,183.196 115.600 C 180.066 115.600,179.087 111.334,181.930 110.079 C 182.841 109.677,183.508 109.693,184.448 110.139 M222.420 111.953 C 222.846 112.308,222.897 112.614,222.950 115.152 L 223.008 117.957 225.814 118.070 L 228.620 118.182 228.685 120.168 C 228.772 122.828,228.825 122.783,225.562 122.783 L 222.896 122.783 222.896 128.230 C 222.896 135.547,223.152 136.025,226.720 135.352 C 228.646 134.989,228.620 134.961,228.620 137.321 L 228.620 139.253 227.889 139.681 C 226.197 140.674,222.304 140.409,220.348 139.168 C 218.088 137.734,217.711 136.353,217.535 128.844 L 217.396 122.896 215.834 122.828 C 213.748 122.738,213.692 122.673,213.692 120.300 C 213.692 117.982,213.675 118.002,215.817 117.932 L 217.396 117.880 217.452 115.450 C 217.539 111.627,217.560 111.599,220.346 111.574 C 221.558 111.564,222.063 111.656,222.420 111.953 M132.711 117.986 C 136.578 118.746,138.453 120.209,137.630 121.823 C 136.357 124.319,136.017 124.436,133.582 123.218 C 130.219 121.534,126.712 121.943,126.712 124.018 C 126.712 125.230,127.378 125.630,130.658 126.388 C 137.253 127.913,138.927 129.456,138.670 133.782 C 138.339 139.373,131.601 142.044,124.516 139.393 C 121.096 138.113,120.354 136.740,121.952 134.642 C 122.915 133.377,123.324 133.351,125.294 134.428 C 129.465 136.710,134.192 135.891,133.469 133.012 C 133.290 132.298,132.271 131.857,129.004 131.083 C 124.127 129.926,122.379 128.803,121.597 126.321 C 119.802 120.628,125.276 116.524,132.711 117.986 M155.395 118.056 C 158.498 118.943,161.714 121.640,161.284 122.994 C 161.113 123.532,158.579 125.477,158.049 125.477 C 157.840 125.477,157.076 124.976,156.352 124.364 C 151.812 120.525,146.051 123.077,146.037 128.933 C 146.023 135.005,152.122 137.717,156.683 133.666 C 158.187 132.330,159.155 132.537,161.111 134.616 C 163.099 136.728,157.480 140.321,152.189 140.321 C 147.240 140.321,143.782 138.240,141.804 134.072 C 137.461 124.918,145.649 115.269,155.395 118.056 M177.553 118.070 C 177.928 118.444,178.002 118.818,178.002 120.329 C 178.002 122.924,177.931 123.007,175.694 123.013 C 170.800 123.026,169.809 124.753,169.809 133.269 C 169.809 140.243,169.950 139.865,167.296 140.015 C 165.744 140.103,165.473 140.058,164.921 139.621 L 164.297 139.127 164.359 128.814 C 164.431 116.948,164.154 118.076,167.003 118.076 C 169.273 118.076,169.469 118.174,169.631 119.384 C 169.768 120.402,169.965 120.532,170.414 119.902 C 171.642 118.177,176.431 116.948,177.553 118.070 M204.910 118.044 C 214.360 120.985,215.341 135.073,206.397 139.406 C 203.527 140.796,198.882 140.465,196.374 138.693 C 195.295 137.930,195.286 137.966,195.286 142.980 C 195.286 148.411,195.377 148.195,192.983 148.478 C 191.389 148.666,190.173 148.318,190.005 147.626 C 189.940 147.357,189.915 140.623,189.949 132.660 L 190.011 118.182 192.223 118.117 C 194.636 118.047,194.948 118.162,195.177 119.207 C 195.354 120.011,195.268 120.014,196.532 119.161 C 198.771 117.650,202.183 117.195,204.910 118.044 M244.909 117.979 C 258.403 121.942,254.174 142.034,240.214 140.281 C 233.103 139.388,228.824 132.932,230.657 125.860 C 232.200 119.904,238.883 116.209,244.909 117.979 M282.716 118.055 C 287.114 119.110,288.115 120.064,286.950 122.090 C 285.727 124.217,285.700 124.224,283.332 123.085 C 280.453 121.700,276.669 121.955,276.355 123.554 C 276.073 124.988,277.003 125.586,280.871 126.459 C 286.566 127.743,288.443 129.433,288.438 133.270 C 288.432 137.924,285.688 140.143,279.910 140.166 C 273.984 140.190,269.691 138.009,270.921 135.598 C 272.158 133.174,272.642 132.997,274.678 134.224 C 278.204 136.351,282.653 136.334,283.234 134.191 C 283.652 132.648,282.900 132.114,278.969 131.160 C 271.862 129.437,269.796 126.920,271.506 122.071 C 272.779 118.464,277.449 116.791,282.716 118.055 M268.926 118.077 C 269.308 118.282,269.360 118.563,269.360 120.407 C 269.360 122.969,269.326 123.005,266.860 123.072 C 262.223 123.199,261.279 125.028,261.279 133.890 C 261.279 140.052,261.364 139.821,259.075 139.884 C 255.595 139.979,255.908 141.054,255.899 128.998 C 255.891 117.113,255.670 118.068,258.425 118.073 C 260.898 118.077,261.070 118.165,261.220 119.495 L 261.336 120.527 262.342 119.642 C 264.059 118.130,267.498 117.313,268.926 118.077 M185.589 118.352 C 186.014 118.864,186.048 139.072,185.625 139.497 C 185.170 139.955,181.337 140.058,180.817 139.626 C 180.455 139.326,180.265 118.575,180.621 118.219 C 180.907 117.933,185.340 118.052,185.589 118.352 M240.629 122.549 C 233.688 123.980,234.143 134.962,241.166 135.519 C 245.098 135.831,248.129 132.561,247.753 128.414 C 247.422 124.759,243.914 121.872,240.629 122.549 M198.764 123.087 C 193.192 125.681,194.577 134.970,200.617 135.512 C 203.219 135.746,205.245 134.628,206.397 132.323 C 209.128 126.861,203.996 120.650,198.764 123.087 " stroke="none" fill="#0c272c" fill-rule="evenodd"></path><path id="path1" d="M156.679 76.489 C 155.143 78.025,155.586 80.260,157.636 81.318 C 159.177 82.113,161.336 81.021,161.725 79.250 C 162.349 76.412,158.734 74.434,156.679 76.489 M121.553 84.988 C 121.291 85.250,121.231 85.550,121.341 86.055 C 121.790 88.124,127.506 106.264,127.759 106.425 C 128.126 106.658,132.452 106.679,132.795 106.450 C 133.282 106.125,133.810 104.530,136.300 95.866 C 136.706 94.457,137.152 93.265,137.293 93.218 C 137.554 93.131,138.470 95.846,140.301 102.132 C 141.692 106.910,141.425 106.614,144.345 106.618 C 147.229 106.623,147.266 106.569,149.139 99.715 C 149.765 97.428,152.454 88.252,152.884 86.937 C 153.570 84.842,153.379 84.624,150.861 84.624 C 148.310 84.624,148.655 83.997,146.473 92.593 C 144.197 101.558,144.361 101.300,143.330 97.531 C 139.553 83.730,140.021 84.752,137.438 84.672 C 135.055 84.597,134.959 84.666,134.376 86.869 C 134.070 88.024,133.270 90.901,131.477 97.292 C 130.354 101.297,130.536 101.534,128.296 93.154 C 126.473 86.329,126.082 85.085,125.682 84.832 C 125.099 84.463,121.959 84.582,121.553 84.988 M156.678 84.844 C 156.085 85.219,156.181 105.867,156.777 106.303 C 157.406 106.763,160.345 106.738,160.814 106.269 C 161.277 105.806,161.357 85.353,160.898 84.893 C 160.574 84.569,157.175 84.530,156.678 84.844 M164.804 84.893 C 164.235 85.462,164.540 85.962,168.954 91.691 C 170.474 93.664,171.717 95.390,171.717 95.528 C 171.717 95.665,170.104 97.940,168.132 100.582 C 163.682 106.546,163.667 106.622,166.951 106.622 C 169.398 106.622,169.285 106.704,172.061 102.861 C 173.376 101.041,174.575 99.551,174.726 99.551 C 174.877 99.551,175.991 100.864,177.201 102.469 C 180.521 106.873,180.201 106.622,182.489 106.622 C 185.856 106.622,185.827 106.452,181.455 100.634 C 179.526 98.068,177.907 95.860,177.856 95.729 C 177.806 95.597,178.961 93.878,180.423 91.908 C 183.109 88.290,184.736 85.892,184.736 85.552 C 184.736 84.519,180.728 84.170,179.877 85.129 C 179.397 85.671,176.668 89.506,175.646 91.077 C 174.784 92.400,174.856 92.465,170.720 86.584 C 170.132 85.748,169.466 84.965,169.240 84.844 C 168.644 84.525,165.133 84.564,164.804 84.893 M219.649 111.952 C 217.734 112.070,217.733 112.072,217.733 115.291 L 217.733 118.070 216.401 118.070 C 214.002 118.070,213.888 118.182,213.964 120.480 L 214.029 122.447 215.825 122.559 L 217.621 122.671 217.741 128.844 C 217.916 137.853,218.897 139.626,223.916 140.006 C 227.467 140.274,228.627 139.544,228.455 137.146 C 228.319 135.244,228.294 135.212,227.192 135.542 C 223.263 136.719,222.618 135.625,222.716 127.946 L 222.783 122.671 225.531 122.608 C 228.715 122.535,228.578 122.658,228.463 119.973 L 228.395 118.406 225.589 118.294 L 222.783 118.182 222.721 115.200 C 222.655 112.055,222.471 111.633,221.254 111.827 C 221.107 111.850,220.385 111.906,219.649 111.952 M127.834 118.060 C 123.821 118.656,121.596 120.895,121.578 124.355 C 121.561 127.823,123.297 129.473,128.208 130.653 C 132.124 131.595,132.706 131.788,133.244 132.326 C 134.055 133.137,133.965 134.118,132.995 135.033 C 131.318 136.614,127.663 136.281,124.471 134.256 C 123.227 133.468,122.946 133.536,122.042 134.841 C 120.693 136.787,121.382 137.996,124.504 139.164 C 131.759 141.879,138.560 139.004,138.560 133.223 C 138.560 129.469,136.404 127.711,130.415 126.581 C 127.154 125.966,125.784 124.883,126.396 123.405 C 127.164 121.551,131.000 121.474,134.172 123.248 C 134.818 123.610,135.454 123.906,135.585 123.906 C 136.228 123.906,137.970 121.247,137.733 120.629 C 137.120 119.030,131.361 117.536,127.834 118.060 M149.327 118.082 C 142.302 119.468,138.739 127.942,142.341 134.700 C 145.517 140.660,154.363 142.062,159.941 137.491 C 161.805 135.963,161.424 134.349,158.934 133.226 L 158.033 132.820 157.041 133.734 C 152.391 138.020,145.836 135.298,145.803 129.068 C 145.770 122.869,151.645 120.244,156.572 124.257 C 158.011 125.429,158.158 125.423,159.819 124.110 C 161.392 122.867,161.361 122.321,159.628 120.717 C 156.953 118.240,153.284 117.302,149.327 118.082 M174.411 118.058 C 172.877 118.336,171.845 118.840,170.752 119.848 C 169.542 120.964,169.473 120.970,169.473 119.963 C 169.473 118.440,169.255 118.294,166.990 118.294 C 164.345 118.294,164.534 117.460,164.534 129.098 C 164.534 140.492,164.331 139.618,166.984 139.618 C 169.596 139.618,169.424 140.053,169.517 133.219 C 169.634 124.602,170.530 123.047,175.533 122.783 L 177.666 122.671 177.723 120.651 C 177.799 117.945,177.281 117.539,174.411 118.058 M199.491 118.089 C 198.467 118.331,197.007 119.047,196.001 119.801 C 195.145 120.444,195.208 120.473,194.935 119.304 L 194.725 118.406 192.480 118.406 L 190.236 118.406 190.178 132.972 C 190.112 149.624,189.895 148.148,192.410 148.148 C 195.240 148.148,195.062 148.511,195.062 142.753 C 195.062 137.893,195.206 137.010,195.836 138.029 C 196.784 139.563,202.077 140.559,204.870 139.730 C 217.754 135.904,212.561 115.010,199.491 118.089 M238.634 118.200 C 232.679 119.801,229.265 125.921,230.875 132.106 C 233.302 141.422,246.674 143.185,251.383 134.808 C 256.430 125.828,248.531 115.538,238.634 118.200 M277.043 118.080 C 273.524 118.710,271.396 121.128,271.385 124.508 C 271.375 127.965,272.960 129.460,277.890 130.641 C 282.782 131.814,283.502 132.194,283.502 133.610 C 283.502 136.482,278.873 136.928,274.666 134.461 C 272.767 133.347,272.659 133.346,271.862 134.447 C 270.274 136.638,270.534 137.405,273.313 138.732 C 278.755 141.330,285.626 140.233,287.551 136.458 C 289.799 132.051,287.516 128.247,281.818 126.906 C 277.082 125.792,276.094 125.297,276.094 124.041 C 276.094 121.642,280.772 121.170,284.223 123.221 C 285.457 123.954,286.696 123.013,287.207 120.957 C 287.644 119.197,281.118 117.350,277.043 118.080 M256.871 118.296 L 256.229 118.411 256.171 128.708 C 256.103 140.634,255.878 139.618,258.586 139.618 C 261.164 139.618,260.995 140.058,261.097 133.109 C 261.225 124.465,261.988 123.134,267.003 122.804 L 269.024 122.671 269.089 120.685 C 269.175 118.065,269.107 117.990,266.786 118.118 C 264.756 118.230,263.221 118.866,262.079 120.069 C 261.258 120.934,261.055 120.941,261.055 120.104 C 261.055 118.411,259.645 117.802,256.871 118.296 M180.853 118.436 C 180.558 118.731,180.667 139.051,180.965 139.349 C 181.270 139.654,184.898 139.723,185.356 139.432 C 185.578 139.291,185.626 137.019,185.580 128.829 L 185.522 118.406 183.266 118.343 C 182.025 118.308,180.939 118.350,180.853 118.436 M203.696 122.901 C 208.574 125.251,208.578 132.958,203.704 135.267 C 198.303 137.824,192.939 131.367,195.766 125.711 C 197.222 122.798,200.829 121.519,203.696 122.901 M243.725 122.628 C 246.680 123.698,248.512 127.198,247.835 130.477 C 246.130 138.731,235.074 136.974,235.501 128.517 C 235.726 124.066,239.747 121.186,243.725 122.628 " stroke="none" fill="#f4f6f6" fill-rule="evenodd"></path><path id="path2" d="M216.793 77.689 C 216.145 77.935,216.048 78.149,214.053 83.726 C 213.501 85.269,212.577 87.795,211.999 89.338 C 211.421 90.881,210.541 93.255,210.044 94.613 C 209.547 95.971,208.902 97.705,208.610 98.467 C 208.319 99.229,208.081 100.006,208.081 100.193 C 208.081 100.381,207.991 100.590,207.882 100.658 C 207.772 100.725,207.612 101.161,207.525 101.625 C 207.438 102.089,207.117 103.018,206.811 103.688 C 206.369 104.655,205.163 108.039,205.163 108.310 C 205.163 108.343,205.516 108.290,205.948 108.193 C 206.393 108.093,206.734 108.103,206.734 108.217 C 206.734 108.327,206.532 108.418,206.285 108.418 C 205.701 108.418,205.716 108.737,206.327 109.307 C 206.935 109.872,208.118 109.907,208.561 109.371 C 208.967 108.881,209.123 108.519,210.434 105.051 C 211.017 103.507,211.585 102.069,211.695 101.855 C 211.806 101.640,212.034 101.085,212.203 100.620 C 212.972 98.494,214.132 95.381,214.652 94.052 C 214.965 93.249,216.049 90.370,217.059 87.654 C 218.070 84.938,219.140 82.093,219.437 81.331 C 220.503 78.598,219.184 76.781,216.793 77.689 M223.069 84.616 C 222.443 85.108,222.122 86.576,222.451 87.441 C 222.666 88.006,223.824 88.853,226.038 90.064 C 226.841 90.503,228.129 91.227,228.900 91.671 C 229.672 92.116,230.934 92.841,231.706 93.281 C 233.111 94.083,233.842 94.648,233.657 94.790 C 233.543 94.877,229.881 96.942,228.070 97.939 C 226.562 98.770,223.377 100.662,222.822 101.056 C 221.081 102.292,223.029 105.340,224.938 104.366 C 225.857 103.897,231.666 100.664,234.905 98.818 C 240.396 95.689,240.098 93.100,233.852 89.684 C 232.085 88.717,229.157 87.082,227.346 86.051 C 223.663 83.954,223.837 84.012,223.069 84.616 M199.406 100.468 C 199.082 100.962,199.073 101.078,199.344 101.250 C 199.747 101.505,200.224 101.517,200.224 101.272 C 200.224 100.901,200.868 101.094,200.973 101.497 C 201.032 101.723,200.989 101.852,200.877 101.783 C 200.765 101.714,200.673 101.775,200.673 101.919 C 200.673 102.080,200.871 102.131,201.186 102.052 C 201.609 101.946,201.707 102.020,201.745 102.473 C 201.791 103.032,201.143 103.377,200.173 103.310 C 199.709 103.278,200.282 104.354,200.755 104.404 C 202.843 104.622,203.061 101.663,201.044 100.481 C 199.810 99.757,199.871 99.758,199.406 100.468 M206.397 106.397 C 206.321 106.521,206.328 106.734,206.412 106.870 C 206.519 107.043,206.624 107.026,206.759 106.814 C 206.900 106.592,206.953 106.646,206.955 107.015 C 206.959 107.591,206.626 107.668,206.157 107.200 C 205.829 106.871,205.941 106.173,206.322 106.173 C 206.440 106.173,206.474 106.274,206.397 106.397 M207.716 108.462 C 207.655 108.561,207.788 108.644,208.011 108.645 C 208.350 108.648,208.363 108.684,208.086 108.859 C 207.710 109.096,206.958 108.553,206.958 108.044 C 206.958 107.800,207.044 107.794,207.393 108.012 C 207.632 108.161,207.777 108.364,207.716 108.462 M205.612 109.364 C 205.612 109.558,205.778 109.780,205.981 109.858 C 206.502 110.058,206.516 109.943,206.032 109.444 C 205.684 109.087,205.612 109.073,205.612 109.364 M181.919 110.337 C 180.553 111.011,179.994 112.967,180.842 114.107 C 182.143 115.856,184.599 115.814,185.523 114.027 C 186.751 111.652,184.312 109.156,181.919 110.337 " stroke="none" fill="#12b8cf" fill-rule="evenodd"></path><path id="path3" d="M200.000 84.815 C 199.250 85.202,197.109 86.404,193.939 88.215 C 193.137 88.674,191.622 89.529,190.572 90.115 C 185.125 93.157,184.940 95.820,189.968 98.798 C 196.486 102.659,200.798 104.853,201.412 104.620 C 202.322 104.273,202.773 103.410,202.625 102.296 C 202.448 100.961,202.095 100.691,196.832 97.876 C 190.358 94.413,190.630 94.817,193.617 93.115 C 194.720 92.486,196.279 91.598,197.082 91.142 C 199.925 89.523,201.118 88.734,200.959 88.576 C 200.871 88.488,200.948 88.473,201.129 88.543 C 201.726 88.771,202.694 87.622,202.694 86.685 C 202.694 85.794,202.134 84.752,201.775 84.974 C 201.657 85.047,201.588 84.975,201.622 84.814 C 201.717 84.364,200.872 84.364,200.000 84.815 M201.044 100.481 C 203.061 101.663,202.843 104.622,200.755 104.404 C 200.282 104.354,199.709 103.278,200.173 103.310 C 201.143 103.377,201.791 103.032,201.745 102.473 C 201.707 102.020,201.609 101.946,201.186 102.052 C 200.871 102.131,200.673 102.080,200.673 101.919 C 200.673 101.775,200.765 101.714,200.877 101.783 C 200.989 101.852,201.032 101.723,200.973 101.497 C 200.868 101.094,200.224 100.901,200.224 101.272 C 200.224 101.517,199.747 101.505,199.344 101.250 C 199.073 101.078,199.082 100.962,199.406 100.468 C 199.871 99.758,199.810 99.757,201.044 100.481 M207.077 102.258 C 206.862 102.821,206.745 103.340,206.816 103.412 C 206.953 103.549,207.242 102.882,207.491 101.852 C 207.718 100.913,207.515 101.113,207.077 102.258 M206.322 104.274 C 206.178 104.589,206.065 104.969,206.069 105.117 C 206.074 105.266,206.227 105.044,206.410 104.624 C 206.793 103.740,206.712 103.418,206.322 104.274 M205.270 107.168 C 204.935 108.233,204.923 108.467,205.189 108.794 C 205.452 109.119,205.452 109.149,205.190 108.991 C 204.641 108.660,205.036 109.368,205.660 109.834 C 206.152 110.202,206.373 110.233,207.105 110.039 C 207.795 109.857,207.853 109.806,207.394 109.788 C 206.383 109.747,205.308 108.418,206.285 108.418 C 206.532 108.418,206.734 108.327,206.734 108.217 C 206.734 108.103,206.393 108.093,205.948 108.193 C 205.516 108.290,205.164 108.356,205.165 108.338 C 205.167 108.320,205.318 107.809,205.502 107.202 C 205.686 106.595,205.797 106.059,205.749 106.011 C 205.701 105.963,205.485 106.483,205.270 107.168 M205.973 106.526 C 205.832 106.894,206.301 107.520,206.718 107.520 C 206.850 107.520,206.957 107.292,206.955 107.015 C 206.953 106.646,206.900 106.592,206.759 106.814 C 206.624 107.026,206.519 107.043,206.412 106.870 C 206.328 106.734,206.321 106.521,206.397 106.397 C 206.474 106.274,206.440 106.173,206.322 106.173 C 206.205 106.173,206.048 106.332,205.973 106.526 M209.678 106.868 C 209.540 107.263,209.435 107.698,209.443 107.834 C 209.452 107.970,209.604 107.686,209.781 107.203 C 209.958 106.719,210.064 106.285,210.016 106.237 C 209.968 106.189,209.816 106.473,209.678 106.868 M206.958 108.044 C 206.958 108.553,207.710 109.096,208.086 108.859 C 208.363 108.684,208.350 108.648,208.011 108.645 C 207.788 108.644,207.655 108.561,207.716 108.462 C 207.777 108.364,207.632 108.161,207.393 108.012 C 207.044 107.794,206.958 107.800,206.958 108.044 M209.050 108.586 C 208.973 108.802,208.749 109.181,208.552 109.428 C 208.199 109.869,208.202 109.869,208.676 109.469 C 208.941 109.245,209.210 108.866,209.272 108.627 C 209.414 108.086,209.239 108.053,209.050 108.586 M206.400 109.938 C 206.246 110.124,205.612 109.663,205.612 109.364 C 205.612 109.073,205.684 109.087,206.032 109.444 C 206.263 109.682,206.429 109.904,206.400 109.938 M182.772 115.531 C 182.988 115.587,183.342 115.587,183.558 115.531 C 183.774 115.474,183.597 115.428,183.165 115.428 C 182.733 115.428,182.556 115.474,182.772 115.531 " stroke="none" fill="#0f8ad7" fill-rule="evenodd"></path><path id="path4" d="M156.969 75.861 C 156.064 76.413,155.547 77.397,155.586 78.496 C 155.614 79.300,155.624 79.285,155.768 78.253 C 156.121 75.701,158.954 74.765,160.881 76.562 C 161.552 77.189,161.640 77.226,161.360 76.768 C 160.584 75.497,158.329 75.031,156.969 75.861 M161.757 78.999 C 161.659 79.607,161.356 80.155,160.821 80.690 C 160.386 81.125,160.124 81.481,160.239 81.481 C 160.934 81.481,162.461 78.660,162.010 78.209 C 161.950 78.149,161.836 78.504,161.757 78.999 M155.780 79.679 C 155.780 80.118,157.471 81.706,157.939 81.706 C 158.211 81.706,158.085 81.563,157.572 81.290 C 157.142 81.062,156.563 80.542,156.285 80.135 C 156.007 79.728,155.780 79.523,155.780 79.679 M222.713 84.633 C 222.383 84.941,222.234 85.326,222.258 85.811 L 222.294 86.532 222.384 85.808 C 222.438 85.373,222.705 84.903,223.052 84.629 C 223.370 84.380,223.534 84.175,223.417 84.175 C 223.300 84.175,222.984 84.381,222.713 84.633 M121.359 84.810 C 120.915 85.300,120.912 85.814,121.343 86.869 C 121.663 87.649,121.655 87.313,121.322 85.947 C 121.079 84.950,121.654 84.624,123.654 84.624 C 125.855 84.624,125.941 84.701,126.730 87.386 C 127.086 88.596,127.410 89.488,127.450 89.368 C 127.567 89.016,126.340 85.223,125.970 84.792 C 125.465 84.206,121.894 84.219,121.359 84.810 M134.945 84.687 C 134.713 84.967,133.558 88.704,133.558 89.176 C 133.558 89.697,133.775 89.132,134.230 87.426 C 134.984 84.601,134.990 84.595,137.439 84.672 L 139.503 84.736 139.887 85.522 C 140.098 85.954,140.275 86.176,140.281 86.016 C 140.287 85.855,140.138 85.426,139.949 85.062 L 139.607 84.400 137.395 84.400 C 135.871 84.400,135.110 84.489,134.945 84.687 M148.381 84.834 C 148.026 85.495,148.104 85.686,148.498 85.123 C 148.814 84.671,149.035 84.624,150.847 84.624 C 153.381 84.624,153.571 84.840,152.884 86.937 C 152.634 87.702,151.774 90.605,150.974 93.389 C 150.173 96.173,149.412 98.730,149.282 99.072 C 149.152 99.413,149.056 99.863,149.068 100.071 C 149.098 100.563,149.639 98.882,151.438 92.705 C 152.248 89.927,153.065 87.123,153.255 86.473 C 153.779 84.678,153.436 84.400,150.703 84.400 C 148.866 84.400,148.585 84.452,148.381 84.834 M156.340 84.931 C 155.744 85.840,155.943 106.083,156.552 106.528 C 157.244 107.034,160.541 106.966,161.020 106.436 C 161.467 105.942,161.598 85.653,161.159 84.834 C 160.771 84.108,156.827 84.188,156.340 84.931 M164.579 84.669 C 163.919 85.330,164.426 86.205,168.602 91.610 C 170.192 93.667,171.493 95.422,171.493 95.509 C 171.493 95.670,167.619 101.010,165.491 103.783 C 164.264 105.381,164.154 105.686,164.542 106.412 C 164.748 106.796,165.029 106.846,166.994 106.846 L 169.213 106.846 170.020 105.904 C 170.464 105.385,171.659 103.773,172.675 102.322 C 174.876 99.179,174.563 99.262,176.132 101.403 C 176.833 102.360,178.063 103.976,178.863 104.994 L 180.319 106.846 182.381 106.846 C 184.557 106.846,185.185 106.574,185.185 105.629 C 185.185 105.411,183.559 103.073,181.571 100.433 L 177.957 95.633 178.816 94.449 C 179.289 93.798,180.299 92.443,181.061 91.437 C 182.930 88.971,184.799 86.183,184.669 86.054 C 184.611 85.996,184.254 86.453,183.874 87.069 C 183.495 87.686,181.965 89.832,180.475 91.840 C 178.984 93.847,177.806 95.597,177.856 95.729 C 177.907 95.860,179.526 98.068,181.455 100.634 C 185.827 106.452,185.856 106.622,182.489 106.622 C 180.201 106.622,180.521 106.873,177.201 102.469 C 175.991 100.864,174.877 99.551,174.726 99.551 C 174.575 99.551,173.376 101.041,172.061 102.861 C 169.285 106.704,169.398 106.622,166.951 106.622 C 163.667 106.622,163.682 106.546,168.132 100.582 C 170.104 97.940,171.717 95.665,171.717 95.528 C 171.717 95.390,170.474 93.664,168.954 91.691 C 163.553 84.680,163.537 84.624,166.951 84.624 C 169.255 84.624,169.392 84.695,170.720 86.584 C 174.856 92.465,174.784 92.400,175.646 91.077 C 176.668 89.506,179.397 85.671,179.877 85.129 C 180.600 84.314,183.834 84.375,184.495 85.215 C 184.789 85.589,184.961 85.685,184.961 85.475 C 184.961 84.682,184.208 84.400,182.093 84.400 L 180.046 84.400 177.947 87.374 C 176.793 89.010,175.640 90.685,175.386 91.098 L 174.923 91.848 174.132 90.873 C 173.697 90.337,172.659 88.939,171.825 87.767 C 169.335 84.263,169.530 84.400,167.006 84.400 C 165.627 84.400,164.751 84.497,164.579 84.669 M160.898 84.893 C 161.357 85.353,161.277 105.806,160.814 106.269 C 160.345 106.738,157.406 106.763,156.777 106.303 C 156.181 105.867,156.085 85.219,156.678 84.844 C 157.175 84.530,160.574 84.569,160.898 84.893 M147.754 86.587 C 147.412 87.782,147.177 89.021,147.316 88.889 C 147.489 88.725,148.189 85.937,148.084 85.832 C 148.036 85.783,147.887 86.123,147.754 86.587 M140.433 87.085 C 140.510 87.513,140.712 88.220,140.881 88.656 L 141.188 89.450 141.048 88.672 C 140.971 88.245,140.770 87.538,140.601 87.101 L 140.293 86.308 140.433 87.085 M222.240 87.339 C 222.230 87.536,222.449 87.889,222.727 88.125 C 223.228 88.549,223.229 88.548,222.869 88.103 C 222.669 87.856,222.450 87.503,222.381 87.318 C 222.276 87.032,222.255 87.035,222.240 87.339 M229.405 87.196 C 229.405 87.258,229.809 87.515,230.303 87.767 C 230.797 88.018,231.201 88.174,231.201 88.112 C 231.201 88.051,230.797 87.794,230.303 87.542 C 229.809 87.290,229.405 87.135,229.405 87.196 M121.677 87.894 C 121.649 88.314,122.394 90.582,122.481 90.340 C 122.527 90.212,122.368 89.555,122.129 88.881 C 121.890 88.206,121.686 87.762,121.677 87.894 M146.641 90.909 C 145.525 95.587,144.475 99.439,144.316 99.439 C 144.112 99.439,143.928 98.877,142.968 95.335 C 142.574 93.880,142.209 92.733,142.157 92.786 C 142.080 92.862,142.926 96.154,143.863 99.424 C 144.058 100.105,144.478 100.271,144.642 99.732 C 145.235 97.781,147.255 89.464,147.185 89.261 C 147.136 89.118,146.891 89.860,146.641 90.909 M133.109 90.572 C 132.951 91.135,132.874 91.647,132.937 91.710 C 133.000 91.773,133.170 91.353,133.315 90.778 C 133.658 89.416,133.482 89.240,133.109 90.572 M141.331 90.228 C 141.408 90.655,141.609 91.362,141.779 91.799 L 142.086 92.593 141.946 91.815 C 141.869 91.387,141.668 90.680,141.499 90.244 L 141.191 89.450 141.331 90.228 M127.497 89.897 C 127.497 90.291,129.141 96.298,129.226 96.214 C 129.275 96.165,128.951 94.726,128.505 93.017 C 127.774 90.216,127.497 89.357,127.497 89.897 M122.575 90.812 C 122.547 91.232,123.291 93.500,123.379 93.258 C 123.425 93.130,123.266 92.474,123.027 91.799 C 122.788 91.124,122.584 90.680,122.575 90.812 M132.337 93.392 C 132.125 94.147,131.996 94.810,132.050 94.864 C 132.104 94.918,132.322 94.344,132.534 93.589 C 132.746 92.833,132.875 92.171,132.821 92.117 C 132.767 92.063,132.549 92.637,132.337 93.392 M136.935 93.687 C 136.571 94.645,136.219 96.115,136.328 96.224 C 136.441 96.336,136.514 96.129,136.934 94.506 C 137.176 93.571,137.215 93.531,137.508 93.932 C 137.831 94.373,137.929 94.141,137.686 93.509 C 137.490 92.996,137.169 93.072,136.935 93.687 M238.537 94.052 C 238.611 94.607,238.707 95.104,238.752 95.155 C 238.921 95.350,238.792 93.919,238.602 93.490 C 238.470 93.191,238.448 93.377,238.537 94.052 M123.479 93.730 C 123.445 94.096,124.147 96.354,124.259 96.242 C 124.314 96.188,124.165 95.546,123.930 94.817 C 123.694 94.087,123.492 93.598,123.479 93.730 M137.829 94.545 C 137.826 94.631,138.068 95.490,138.368 96.453 C 138.668 97.416,139.028 98.644,139.168 99.181 C 139.309 99.718,139.478 100.103,139.546 100.035 C 139.613 99.968,139.340 98.822,138.940 97.488 C 138.277 95.277,137.847 94.139,137.829 94.545 M131.212 97.379 C 130.501 99.969,130.491 99.973,129.803 97.908 C 129.268 96.307,129.314 96.969,129.874 98.949 C 130.064 99.618,130.323 100.106,130.464 100.059 C 130.728 99.971,132.038 95.668,131.914 95.295 C 131.875 95.176,131.559 96.114,131.212 97.379 M124.482 97.082 C 124.697 98.236,125.766 101.583,125.843 101.347 C 125.883 101.223,125.565 100.062,125.136 98.765 C 124.707 97.469,124.412 96.712,124.482 97.082 M135.703 97.888 C 135.492 98.640,135.371 99.306,135.434 99.369 C 135.538 99.474,135.736 98.857,136.151 97.138 C 136.441 95.938,136.081 96.540,135.703 97.888 M237.360 97.250 L 236.700 97.980 237.430 97.321 C 238.110 96.706,238.263 96.521,238.089 96.521 C 238.051 96.521,237.722 96.849,237.360 97.250 M134.815 100.920 C 134.598 101.609,134.469 102.221,134.529 102.281 C 134.589 102.341,134.805 101.816,135.009 101.115 C 135.492 99.455,135.328 99.291,134.815 100.920 M139.636 100.478 C 139.602 100.959,141.132 105.715,141.502 106.280 C 141.981 107.010,146.482 107.167,147.054 106.473 C 147.333 106.135,147.315 106.124,146.872 106.361 C 146.115 106.764,142.201 106.703,141.779 106.282 C 141.592 106.094,141.175 105.059,140.853 103.981 C 140.067 101.350,139.658 100.172,139.636 100.478 M202.047 100.898 C 202.247 101.145,202.466 101.498,202.534 101.684 C 202.639 101.969,202.661 101.966,202.676 101.662 C 202.686 101.465,202.466 101.112,202.189 100.877 C 201.688 100.453,201.687 100.453,202.047 100.898 M148.393 102.153 C 148.241 102.659,148.168 103.125,148.230 103.187 C 148.292 103.249,148.457 102.876,148.597 102.357 C 148.928 101.129,148.752 100.953,148.393 102.153 M125.942 101.811 C 125.914 102.231,126.658 104.499,126.746 104.257 C 126.792 104.129,126.633 103.472,126.394 102.798 C 126.155 102.123,125.951 101.679,125.942 101.811 M133.816 104.248 C 133.138 106.582,133.079 106.622,130.343 106.618 C 127.726 106.614,127.626 106.575,127.161 105.376 C 126.892 104.684,126.846 104.637,126.948 105.163 C 127.254 106.739,127.466 106.846,130.273 106.846 C 132.411 106.846,132.871 106.784,133.166 106.453 C 133.535 106.040,134.580 102.855,134.404 102.679 C 134.348 102.623,134.083 103.329,133.816 104.248 M147.719 104.399 C 147.567 104.906,147.382 105.479,147.308 105.672 C 147.227 105.884,147.267 105.965,147.409 105.877 C 147.651 105.727,148.236 103.717,148.082 103.563 C 148.034 103.515,147.871 103.892,147.719 104.399 M182.772 109.919 C 182.988 109.976,183.342 109.976,183.558 109.919 C 183.774 109.863,183.597 109.816,183.165 109.816 C 182.733 109.816,182.556 109.863,182.772 109.919 M181.338 110.451 L 180.808 110.913 181.481 110.519 C 182.368 110.000,182.381 109.989,182.105 109.989 C 181.975 109.989,181.629 110.197,181.338 110.451 M218.245 111.789 C 217.590 112.053,216.938 118.072,217.565 118.070 C 217.657 118.070,217.733 116.819,217.733 115.291 C 217.733 112.029,217.680 112.108,219.975 111.951 C 222.709 111.765,222.647 111.692,222.721 115.200 L 222.783 118.182 225.589 118.294 L 228.395 118.406 228.463 119.973 C 228.578 122.658,228.715 122.535,225.531 122.608 L 222.783 122.671 222.716 127.946 C 222.618 135.625,223.263 136.719,227.192 135.542 C 228.294 135.212,228.319 135.244,228.455 137.146 C 228.592 139.065,228.335 139.453,226.661 139.855 C 223.045 140.722,219.536 139.230,218.409 136.345 C 218.172 135.738,217.975 135.443,217.970 135.690 C 217.909 138.967,224.551 141.640,227.889 139.681 L 228.620 139.253 228.620 137.321 C 228.620 134.961,228.646 134.989,226.720 135.352 C 223.152 136.025,222.896 135.547,222.896 128.230 L 222.896 122.783 225.562 122.783 C 228.825 122.783,228.772 122.828,228.685 120.168 L 228.620 118.182 225.814 118.070 L 223.008 117.957 222.950 115.152 C 222.878 111.682,222.783 111.553,220.346 111.574 C 219.464 111.582,218.519 111.679,218.245 111.789 M181.539 115.095 C 181.830 115.373,182.188 115.597,182.336 115.594 C 182.483 115.590,182.402 115.475,182.155 115.338 C 181.908 115.201,181.549 114.977,181.358 114.840 C 181.167 114.702,181.248 114.818,181.539 115.095 M127.609 117.825 C 127.239 117.908,128.249 117.978,129.854 117.981 C 131.799 117.984,132.473 117.929,131.874 117.816 C 130.793 117.612,128.539 117.616,127.609 117.825 M148.597 118.044 C 146.075 118.859,143.184 121.011,142.406 122.651 C 142.080 123.338,142.081 123.339,142.462 122.783 C 144.789 119.387,148.498 117.680,153.086 117.896 C 154.259 117.951,154.966 117.921,154.658 117.831 C 153.536 117.500,149.881 117.629,148.597 118.044 M173.737 117.981 C 172.433 118.330,170.904 119.214,170.414 119.902 C 169.965 120.532,169.768 120.402,169.631 119.384 C 169.469 118.174,169.273 118.076,167.003 118.076 C 164.154 118.076,164.431 116.948,164.359 128.814 L 164.297 139.127 164.921 139.621 C 165.473 140.058,165.744 140.103,167.296 140.015 C 169.950 139.865,169.809 140.243,169.809 133.269 C 169.809 124.755,170.801 123.026,175.688 123.013 C 176.699 123.010,177.574 122.932,177.631 122.840 C 177.936 122.348,173.368 122.919,172.389 123.494 C 169.945 124.930,169.614 126.049,169.517 133.219 C 169.424 140.053,169.596 139.618,166.984 139.618 C 164.331 139.618,164.534 140.492,164.534 129.098 C 164.534 117.460,164.345 118.294,166.990 118.294 C 169.255 118.294,169.473 118.440,169.473 119.963 C 169.473 120.975,169.515 120.969,170.849 119.769 C 172.180 118.572,173.707 118.018,175.776 117.983 C 177.672 117.951,177.639 117.913,177.795 120.388 L 177.923 122.447 177.963 120.483 C 178.021 117.571,177.164 117.063,173.737 117.981 M198.844 118.050 C 198.147 118.273,197.107 118.773,196.532 119.161 C 195.268 120.014,195.354 120.011,195.177 119.207 C 194.948 118.162,194.636 118.047,192.223 118.117 L 190.011 118.182 189.949 132.660 C 189.915 140.623,189.940 147.357,190.005 147.626 C 190.173 148.318,191.389 148.666,192.983 148.478 C 195.377 148.195,195.286 148.411,195.286 142.980 C 195.286 137.835,195.250 137.944,196.642 138.866 C 197.136 139.192,197.598 139.401,197.669 139.330 C 197.741 139.259,197.392 138.993,196.894 138.739 C 196.397 138.486,195.927 138.176,195.849 138.050 C 195.205 137.009,195.062 137.867,195.062 142.753 C 195.062 148.511,195.240 148.148,192.410 148.148 C 189.895 148.148,190.112 149.624,190.178 132.972 L 190.236 118.406 192.480 118.406 L 194.725 118.406 194.935 119.304 C 195.208 120.474,195.144 120.445,196.010 119.785 C 200.931 116.032,208.455 117.982,211.188 123.718 C 213.736 129.064,211.793 136.369,207.199 138.712 C 206.672 138.981,206.298 139.257,206.367 139.326 C 206.894 139.853,210.310 136.584,211.304 134.600 C 215.824 125.582,207.959 115.135,198.844 118.050 M237.935 118.194 C 235.953 118.843,234.146 120.041,233.034 121.441 C 232.284 122.387,232.311 122.373,233.491 121.200 C 239.163 115.562,249.024 117.255,252.036 124.384 C 252.421 125.294,252.739 125.875,252.743 125.676 C 252.758 124.899,251.085 122.026,249.968 120.910 C 246.944 117.890,242.157 116.810,237.935 118.194 M276.655 117.957 L 275.758 118.258 276.768 118.108 C 278.560 117.841,281.757 117.978,283.165 118.382 C 285.306 118.996,285.475 119.030,285.041 118.756 C 283.588 117.838,278.462 117.350,276.655 117.957 M214.081 118.099 C 213.585 118.376,213.502 122.122,213.982 122.520 C 214.142 122.652,214.975 122.791,215.834 122.828 L 217.396 122.896 217.516 128.395 L 217.637 133.895 217.629 128.283 L 217.621 122.671 215.825 122.559 L 214.029 122.447 213.964 120.479 C 213.903 118.624,213.928 118.500,214.395 118.327 C 214.668 118.226,214.796 118.085,214.680 118.013 C 214.564 117.941,214.294 117.980,214.081 118.099 M215.657 118.004 C 215.934 118.057,216.389 118.057,216.667 118.004 C 216.944 117.950,216.717 117.906,216.162 117.906 C 215.606 117.906,215.379 117.950,215.657 118.004 M265.220 118.047 C 264.980 118.141,265.640 118.173,266.687 118.118 C 269.120 117.991,269.175 118.049,269.089 120.685 L 269.024 122.671 267.003 122.804 C 263.508 123.034,261.247 124.940,261.303 127.609 C 261.314 128.129,261.381 128.022,261.595 127.140 C 262.267 124.374,263.845 123.154,266.860 123.072 C 269.326 123.005,269.360 122.969,269.360 120.407 C 269.360 118.563,269.308 118.282,268.926 118.077 C 268.430 117.812,265.875 117.791,265.220 118.047 M125.901 118.286 C 123.198 119.104,121.183 121.747,121.228 124.419 C 121.257 126.170,121.552 126.160,121.569 124.407 C 121.583 123.103,121.706 122.440,122.064 121.743 C 122.897 120.124,123.672 119.513,126.375 118.343 C 127.026 118.061,126.753 118.028,125.901 118.286 M180.621 118.219 C 180.265 118.575,180.455 139.326,180.817 139.626 C 181.337 140.058,185.170 139.955,185.625 139.497 C 186.048 139.072,186.014 118.864,185.589 118.352 C 185.340 118.052,180.907 117.933,180.621 118.219 M256.254 118.253 C 256.192 118.355,256.438 118.394,256.802 118.340 C 257.166 118.287,257.464 118.204,257.464 118.156 C 257.464 117.985,256.365 118.073,256.254 118.253 M259.100 118.236 C 260.771 118.323,261.055 118.594,261.055 120.104 C 261.055 120.968,261.257 120.936,262.189 119.921 L 262.963 119.080 262.152 119.823 L 261.341 120.567 261.222 119.515 C 261.075 118.208,260.854 118.066,259.035 118.117 L 257.576 118.158 259.100 118.236 M134.965 118.837 C 137.572 119.909,138.069 120.523,137.397 121.838 C 136.329 123.927,135.803 124.158,134.172 123.255 C 133.525 122.897,132.744 122.538,132.435 122.457 C 132.127 122.376,132.668 122.720,133.637 123.220 C 135.756 124.314,135.828 124.319,136.579 123.427 C 137.591 122.224,138.121 120.992,137.867 120.434 C 137.626 119.905,134.766 118.291,134.086 118.299 C 133.857 118.302,134.253 118.544,134.965 118.837 M157.102 118.909 C 160.632 120.626,161.682 122.637,159.819 124.110 C 158.158 125.423,158.011 125.429,156.572 124.257 C 154.734 122.760,154.097 122.495,152.189 122.427 L 150.505 122.367 152.076 122.538 C 154.056 122.754,154.909 123.125,156.440 124.433 C 157.946 125.721,158.103 125.722,159.786 124.457 C 161.410 123.236,161.589 122.819,160.941 121.770 C 160.185 120.546,157.074 118.271,156.209 118.308 C 156.035 118.315,156.437 118.586,157.102 118.909 M185.580 128.829 C 185.626 137.019,185.578 139.291,185.356 139.432 C 184.898 139.723,181.270 139.654,180.965 139.349 C 180.667 139.051,180.558 118.731,180.853 118.436 C 180.939 118.350,182.025 118.308,183.266 118.343 L 185.522 118.406 185.580 128.829 M263.692 118.647 C 262.822 119.119,262.921 119.282,263.805 118.832 C 264.651 118.402,264.801 118.291,264.516 118.303 C 264.402 118.308,264.032 118.463,263.692 118.647 M273.954 119.024 C 271.105 120.968,270.132 125.118,271.904 127.764 C 272.407 128.513,274.356 129.975,274.829 129.956 C 274.969 129.951,274.723 129.756,274.282 129.522 C 270.074 127.298,270.409 121.077,274.860 118.778 C 275.354 118.523,275.592 118.309,275.390 118.304 C 275.188 118.299,274.542 118.622,273.954 119.024 M255.953 128.844 C 255.897 141.080,255.586 139.980,259.075 139.884 C 261.375 139.821,261.289 140.066,261.228 133.822 L 261.176 128.507 261.111 133.764 C 261.035 139.980,261.191 139.618,258.586 139.618 C 255.901 139.618,256.131 140.602,256.061 128.824 L 256.000 118.631 255.953 128.844 M286.406 119.657 C 287.501 120.450,287.508 120.835,286.459 122.504 C 285.691 123.727,285.280 123.843,284.112 123.169 C 283.591 122.869,282.862 122.555,282.492 122.472 C 282.121 122.389,282.525 122.675,283.389 123.107 C 285.649 124.236,285.728 124.213,286.973 122.050 C 287.713 120.764,287.624 120.176,286.580 119.473 C 285.455 118.714,285.313 118.865,286.406 119.657 M127.834 122.229 C 127.340 122.407,126.913 122.554,126.886 122.556 C 125.990 122.616,126.185 124.919,127.134 125.498 C 128.122 126.100,128.394 126.031,127.474 125.412 C 125.458 124.053,126.783 122.252,129.792 122.263 C 130.967 122.268,131.444 122.208,131.089 122.100 C 130.184 121.826,128.799 121.881,127.834 122.229 M277.553 122.200 C 275.572 123.075,275.907 125.999,277.979 125.916 C 278.115 125.911,277.849 125.707,277.388 125.463 C 274.932 124.167,276.369 122.212,279.759 122.239 C 280.947 122.248,281.581 122.187,281.257 122.093 C 280.328 121.824,278.271 121.883,277.553 122.200 M201.347 122.552 C 203.521 122.782,205.063 123.748,206.363 125.695 C 206.567 126.001,206.734 126.157,206.734 126.044 C 206.734 124.497,203.331 122.302,201.033 122.366 C 199.890 122.398,199.891 122.399,201.347 122.552 M242.712 122.561 C 245.100 123.176,246.872 124.883,247.602 127.273 C 247.734 127.708,247.777 127.736,247.792 127.400 C 247.871 125.618,244.972 122.706,242.873 122.460 L 241.863 122.342 242.712 122.561 M149.024 123.006 C 145.297 124.975,144.611 130.884,147.744 134.017 C 150.231 136.504,154.166 136.384,157.041 133.734 L 158.033 132.820 158.934 133.226 C 162.092 134.650,161.575 137.301,157.832 138.878 C 157.418 139.053,157.135 139.253,157.205 139.322 C 157.590 139.707,160.708 137.335,161.299 136.206 C 161.824 135.203,161.567 134.770,159.618 133.369 C 158.325 132.440,158.029 132.470,156.683 133.666 C 153.147 136.806,148.395 135.967,146.541 131.874 C 145.067 128.620,146.391 124.588,149.422 123.103 C 150.018 122.812,150.354 122.574,150.168 122.576 C 149.983 122.577,149.468 122.771,149.024 123.006 M198.542 122.912 C 196.041 124.217,194.979 126.207,195.096 129.377 C 195.146 130.760,195.279 131.619,195.470 131.807 C 195.715 132.048,195.735 131.982,195.583 131.425 C 194.627 127.932,195.981 124.383,198.764 123.087 C 199.382 122.799,199.736 122.563,199.551 122.562 C 199.366 122.562,198.912 122.719,198.542 122.912 M231.643 123.288 C 230.592 124.996,229.951 129.371,230.467 131.313 C 230.618 131.880,230.647 131.434,230.573 129.707 C 230.463 127.134,230.931 124.892,231.913 123.288 C 232.159 122.887,232.300 122.559,232.226 122.559 C 232.152 122.559,231.890 122.887,231.643 123.288 M238.327 123.220 C 236.449 124.411,235.443 126.524,235.501 129.153 L 235.537 130.752 235.681 128.844 C 235.904 125.876,237.062 123.933,239.169 122.992 C 239.663 122.771,239.910 122.583,239.718 122.575 C 239.527 122.566,238.900 122.857,238.327 123.220 M141.657 123.872 C 141.523 124.121,141.418 124.458,141.423 124.620 C 141.428 124.783,141.587 124.629,141.777 124.279 C 141.967 123.928,142.072 123.591,142.011 123.530 C 141.950 123.469,141.790 123.622,141.657 123.872 M140.838 126.486 C 139.604 133.064,143.930 139.548,149.965 140.167 C 151.151 140.289,151.143 140.284,149.639 139.943 C 143.837 138.630,140.732 134.332,141.014 128.005 C 141.122 125.571,141.079 125.202,140.838 126.486 M128.439 126.043 C 128.614 126.220,131.240 126.815,131.762 126.796 C 132.153 126.782,130.418 126.285,129.150 126.048 C 128.673 125.959,128.353 125.957,128.439 126.043 M279.125 126.259 C 279.618 126.427,280.275 126.564,280.584 126.563 L 281.145 126.561 280.584 126.391 C 280.275 126.297,279.618 126.160,279.125 126.087 L 278.227 125.953 279.125 126.259 M121.797 126.819 C 122.268 128.547,125.932 130.901,128.058 130.842 C 128.305 130.835,127.901 130.647,127.160 130.423 C 124.277 129.553,122.969 128.666,122.016 126.936 C 121.700 126.363,121.667 126.345,121.797 126.819 M206.897 126.936 C 208.621 133.818,200.698 138.833,196.709 133.384 C 195.877 132.248,195.565 131.954,196.060 132.772 C 198.684 137.115,204.650 136.740,206.776 132.099 C 207.373 130.797,207.517 127.511,207.012 126.712 C 206.758 126.311,206.746 126.335,206.897 126.936 M252.855 128.956 C 252.855 130.438,252.921 131.347,253.000 130.976 C 253.080 130.606,253.146 129.697,253.146 128.956 C 253.146 128.215,253.080 127.306,253.000 126.936 C 252.921 126.566,252.855 127.475,252.855 128.956 M133.436 127.284 C 134.172 127.515,134.808 127.668,134.851 127.625 C 134.968 127.508,132.857 126.821,132.452 126.844 C 132.258 126.856,132.701 127.053,133.436 127.284 M283.415 127.337 C 286.442 128.507,287.528 129.494,288.092 131.589 C 288.320 132.437,288.415 132.595,288.425 132.148 C 288.476 130.020,285.592 127.362,282.751 126.918 C 282.321 126.850,282.582 127.015,283.415 127.337 M135.129 127.823 C 135.129 127.879,135.484 128.093,135.917 128.299 C 137.194 128.905,138.135 130.332,138.569 132.323 C 138.623 132.570,138.627 132.321,138.579 131.770 C 138.441 130.193,135.129 126.404,135.129 127.823 M247.847 128.880 C 247.828 129.456,247.614 130.567,247.374 131.349 C 247.100 132.239,247.046 132.624,247.231 132.378 C 247.642 131.829,248.092 129.564,247.978 128.620 C 247.895 127.933,247.879 127.966,247.847 128.880 M275.765 130.293 C 276.139 130.462,276.846 130.658,277.336 130.728 L 278.227 130.855 277.329 130.558 C 276.835 130.394,276.128 130.198,275.758 130.122 L 275.084 129.985 275.765 130.293 M235.695 131.040 C 235.649 133.725,241.258 137.038,243.469 135.631 C 243.612 135.540,242.854 135.466,241.786 135.466 C 238.936 135.466,237.370 134.434,236.155 131.756 C 235.905 131.204,235.698 130.881,235.695 131.040 M130.079 131.332 C 130.449 131.441,131.156 131.634,131.650 131.762 C 132.904 132.086,133.376 132.513,133.566 133.495 L 133.731 134.343 133.756 133.604 C 133.800 132.366,131.703 131.021,129.869 131.112 C 129.529 131.128,129.584 131.187,130.079 131.332 M279.574 131.276 C 280.268 131.582,281.895 131.819,281.460 131.550 C 281.263 131.429,280.657 131.273,280.113 131.204 C 279.445 131.119,279.270 131.142,279.574 131.276 M252.315 132.716 C 251.285 136.211,248.075 139.070,244.173 139.968 L 242.761 140.293 243.996 140.167 C 247.582 139.800,251.897 135.966,252.631 132.492 C 252.852 131.445,252.647 131.592,252.315 132.716 M282.322 132.106 C 282.592 132.296,282.968 132.672,283.157 132.942 C 283.347 133.212,283.502 133.305,283.502 133.149 C 283.502 132.780,282.484 131.762,282.115 131.762 C 281.959 131.762,282.052 131.917,282.322 132.106 M230.867 132.882 C 231.359 136.095,236.621 140.359,239.995 140.279 C 240.282 140.273,239.795 140.078,238.914 139.847 C 235.044 138.832,232.497 136.629,231.142 133.122 C 230.778 132.180,230.756 132.161,230.867 132.882 M245.607 134.015 C 244.291 135.243,244.306 135.529,245.629 134.438 C 246.312 133.875,247.126 132.858,246.865 132.893 C 246.830 132.898,246.264 133.403,245.607 134.015 M271.951 134.037 C 271.359 134.741,270.479 136.302,270.487 136.635 C 270.489 136.733,270.794 136.263,271.164 135.592 C 272.463 133.234,272.535 133.211,274.666 134.461 C 278.634 136.788,283.596 136.473,283.481 133.901 C 283.469 133.611,283.383 133.716,283.246 134.191 C 282.629 136.334,278.204 136.351,274.678 134.224 C 272.897 133.150,272.708 133.137,271.951 134.037 M122.397 134.063 C 121.672 134.851,120.989 136.091,120.988 136.621 C 120.986 137.956,124.716 139.902,127.782 140.166 L 129.181 140.287 127.466 139.959 C 124.402 139.373,121.212 137.759,121.212 136.795 C 121.212 136.187,121.810 135.027,122.504 134.287 C 122.880 133.886,123.115 133.558,123.025 133.558 C 122.935 133.558,122.653 133.785,122.397 134.063 M124.457 134.248 C 127.587 136.233,131.200 136.604,132.903 135.116 L 133.670 134.445 132.814 135.000 C 130.997 136.178,128.099 135.962,125.319 134.442 C 123.390 133.387,122.939 133.285,124.457 134.248 M138.496 134.079 C 138.496 136.936,135.692 139.436,131.773 140.072 L 130.527 140.275 131.979 140.169 C 134.608 139.979,136.979 138.519,138.068 136.420 C 138.505 135.579,138.908 133.558,138.639 133.558 C 138.560 133.558,138.496 133.792,138.496 134.079 M288.249 134.368 C 288.231 134.752,287.928 135.636,287.577 136.332 C 287.226 137.028,287.010 137.598,287.097 137.598 C 287.422 137.598,288.467 134.887,288.376 134.283 C 288.286 133.692,288.282 133.696,288.249 134.368 M270.707 137.005 C 270.707 137.460,273.642 139.400,274.299 139.379 C 274.484 139.373,274.125 139.136,273.502 138.852 C 272.878 138.569,271.994 138.008,271.538 137.607 C 271.081 137.206,270.707 136.935,270.707 137.005 M286.183 138.174 C 286.023 138.367,285.597 138.678,285.237 138.864 C 284.877 139.050,284.640 139.261,284.711 139.332 C 284.841 139.461,286.563 138.361,286.780 138.010 C 286.987 137.674,286.483 137.813,286.183 138.174 M154.994 139.867 C 153.556 140.253,153.518 140.278,154.545 140.156 C 155.162 140.083,155.970 139.890,156.341 139.727 C 157.256 139.324,156.864 139.365,154.994 139.867 M198.541 139.794 C 199.420 140.293,204.207 140.346,205.338 139.869 C 206.391 139.425,206.116 139.354,204.836 139.739 C 203.428 140.163,200.601 140.160,199.194 139.733 C 197.803 139.311,197.706 139.320,198.541 139.794 M274.966 139.600 C 275.419 139.900,278.187 140.350,278.828 140.228 C 279.200 140.157,279.125 140.118,278.563 140.092 C 278.131 140.073,277.323 139.957,276.768 139.836 C 274.651 139.373,274.617 139.368,274.966 139.600 M283.547 139.630 C 283.263 139.743,282.404 139.935,281.639 140.055 L 280.247 140.273 281.794 140.161 C 282.645 140.099,283.604 139.905,283.926 139.730 C 284.581 139.374,284.341 139.311,283.547 139.630 " stroke="none" fill="#657578" fill-rule="evenodd"></path></g></svg>